<?xml version="1.0" encoding="UTF-8"?>
<svg version="1.1" xmlns="http://www.w3.org/2000/svg" width="239" height="52">
<path d="M0 0 C4.1119457 0.8231478 5.84036843 2.52450233 8.75 5.5625 C9.94882813 6.80193359 9.94882813 6.80193359 11.171875 8.06640625 C11.77515625 8.70449219 12.3784375 9.34257812 13 10 C13.06058594 9.36191406 13.12117187 8.72382813 13.18359375 8.06640625 C13.26738281 7.24011719 13.35117188 6.41382813 13.4375 5.5625 C13.51871094 4.73878906 13.59992188 3.91507813 13.68359375 3.06640625 C14 1 14 1 15 0 C17.5 -0.125 17.5 -0.125 20 0 C21 1 21 1 21.11352539 3.22485352 C21.10828857 4.18319092 21.10305176 5.14152832 21.09765625 6.12890625 C21.09443359 7.16337891 21.09121094 8.19785156 21.08789062 9.26367188 C21.07951172 10.35228516 21.07113281 11.44089844 21.0625 12.5625 C21.05798828 13.65498047 21.05347656 14.74746094 21.04882812 15.87304688 C21.03699826 18.58208495 21.02051543 21.29101599 21 24 C16.8880543 23.1768522 15.15963157 21.47549767 12.25 18.4375 C11.45078125 17.61121094 10.6515625 16.78492187 9.828125 15.93359375 C9.22484375 15.29550781 8.6215625 14.65742188 8 14 C7.93941406 14.63808594 7.87882813 15.27617187 7.81640625 15.93359375 C7.69072266 17.17302734 7.69072266 17.17302734 7.5625 18.4375 C7.48128906 19.26121094 7.40007812 20.08492187 7.31640625 20.93359375 C7 23 7 23 6 24 C3.5 24.125 3.5 24.125 1 24 C0 23 0 23 -0.11352539 20.77514648 C-0.10828857 19.81680908 -0.10305176 18.85847168 -0.09765625 17.87109375 C-0.09443359 16.83662109 -0.09121094 15.80214844 -0.08789062 14.73632812 C-0.07951172 13.64771484 -0.07113281 12.55910156 -0.0625 11.4375 C-0.05798828 10.34501953 -0.05347656 9.25253906 -0.04882812 8.12695312 C-0.03699826 5.41791505 -0.02051543 2.70898401 0 0 Z " fill="#B22C2F" transform="translate(192,10)"/>
<path d="M0 0 C3.26527446 2.12924458 6.23903936 4.47807873 8 8 C8.34717992 13.29449372 8.52421718 16.74663444 5 21 C1.62077785 23.79992692 -1.51413971 24.66553565 -5.93359375 24.47265625 C-9.94146529 23.55592193 -12.59750059 21.26795308 -15 18 C-16.58306016 13.90839835 -16.28737026 10.87901493 -14.9375 6.75 C-11.04325428 1.22268349 -6.76567442 -1.18696042 0 0 Z M-9 9 C-9.50010524 11.95769177 -9.50010524 11.95769177 -9 15 C-7.42304368 17.0785608 -7.42304368 17.0785608 -5 18 C-2.36462492 18.00635246 -2.36462492 18.00635246 0 17 C2.29637779 14.24104365 2.29637779 14.24104365 1.75 11.4375 C1.16191948 8.84999433 1.16191948 8.84999433 -1 7 C-5.50480277 6.4895042 -5.50480277 6.4895042 -9 9 Z " fill="#B12B2E" transform="translate(182,10)"/>
<path d="M0 0 C12 0 12 0 17 3 C18.39935013 5.79870027 18.25265405 7.90498792 18 11 C16.5 12.875 16.5 12.875 15 14 C15.309375 14.9075 15.61875 15.815 15.9375 16.75 C16.7272263 19.16563338 17.42949297 21.52780285 18 24 C15.25 24.375 15.25 24.375 12 24 C9.36091208 20.87476431 8 19.13534147 8 15 C7.34 15 6.68 15 6 15 C6 17.97 6 20.94 6 24 C4.02 24 2.04 24 0 24 C0 16.08 0 8.16 0 0 Z M6 6 C6 7.32 6 8.64 6 10 C7.65 10 9.3 10 11 10 C11 8.68 11 7.36 11 6 C9.35 6 7.7 6 6 6 Z " fill="#B12C2F" transform="translate(147,10)"/>
<path d="M0 0 C2.875 1.5 2.875 1.5 5 3 C4.67 4.32 4.34 5.64 4 7 C0.61288625 8.04218885 -2.47649693 8 -6 8 C-7.35618499 9.12534105 -7.35618499 9.12534105 -7.0625 12.0625 C-7.041875 13.031875 -7.02125 14.00125 -7 15 C-5.68 15.66 -4.36 16.32 -3 17 C-3 15.02 -3 13.04 -3 11 C-0.36 11 2.28 11 5 11 C5 14.63 5 18.26 5 22 C0.75229604 24.12385198 -2.37351867 24.58983029 -7 24 C-11.16507424 22.2414131 -13.20882468 20.14798495 -15 16 C-15.53952431 10.96443974 -15.04234376 8.05645834 -12 4 C-8.58298941 0.01348765 -5.1229593 -0.40983674 0 0 Z " fill="#B12C2F" transform="translate(230,10)"/>
<path d="M0 0 C2.5 0.125 2.5 0.125 3.5 1.125 C3.57319621 3.82154854 3.59242537 6.49191458 3.5625 9.1875 C3.55798828 9.94611328 3.55347656 10.70472656 3.54882812 11.48632812 C3.5370068 13.36591871 3.51907078 15.24546899 3.5 17.125 C5.48 17.125 7.46 17.125 9.5 17.125 C9.48839844 15.98160156 9.47679688 14.83820312 9.46484375 13.66015625 C9.45546712 12.16927246 9.44636679 10.67838691 9.4375 9.1875 C9.42912109 8.43275391 9.42074219 7.67800781 9.41210938 6.90039062 C9.40347559 4.97505687 9.44775667 3.04964419 9.5 1.125 C10.5 0.125 10.5 0.125 13 0 C15.5 0.125 15.5 0.125 16.5 1.125 C16.65461551 3.53640721 16.73170241 5.89950571 16.75 8.3125 C16.77578125 9.62605469 16.8015625 10.93960937 16.828125 12.29296875 C16.48292116 16.32445645 15.60531171 18.70193818 13.5 22.125 C10.34484001 24.51856965 7.36853221 24.44737768 3.5 24.125 C0.70942009 23.2479606 -0.30344741 22.37922083 -2.09765625 20.05859375 C-3.89743859 16.29358946 -3.86733143 12.95226704 -3.75 8.875 C-3.74484375 8.1428125 -3.7396875 7.410625 -3.734375 6.65625 C-3.63845904 0.18192295 -3.63845904 0.18192295 0 0 Z " fill="#B22C2F" transform="translate(104.5,9.875)"/>
<path d="M0 0 C0 5.94 0 11.88 0 18 C2.31 16.68 4.62 15.36 7 14 C7.66 14 8.32 14 9 14 C10.06631795 17.34112958 10.25611943 19.6933773 9 23 C5.00652233 26.63191154 -2.567587 32 -8 32 C-8.17406637 27.41714498 -8.28078485 22.83513707 -8.375 18.25 C-8.42527344 16.94804688 -8.47554687 15.64609375 -8.52734375 14.3046875 C-8.67234457 4.92796764 -8.67234457 4.92796764 -6.70800781 2.21679688 C-4.542332 0.72386291 -2.63986563 0 0 0 Z " fill="#DD7D45" transform="translate(10,19)"/>
<path d="M0 0 C0.71116964 5.24487612 0.71116964 5.24487612 0 8 C-1.74609375 9.01171875 -1.74609375 9.01171875 -3.9375 9.875 C-6.28445191 10.87116007 -6.28445191 10.87116007 -8 13 C-9.41254561 18.82801571 -9.09895926 25.04388947 -9 31 C-14.75 34 -14.75 34 -17 34 C-17 25.42 -17 16.84 -17 8 C-14.751875 6.68 -12.50375 5.36 -10.1875 4 C-9.48391357 3.58234375 -8.78032715 3.1646875 -8.05541992 2.734375 C-3.33333333 0 -3.33333333 0 0 0 Z " fill="#B22C2F" transform="translate(28,1)"/>
<path d="M0 0 C0.35471906 3.07423183 0.52666346 5.94008528 0 9 C-4.48780488 13 -4.48780488 13 -8 13 C-8 18.94 -8 24.88 -8 31 C-11.96 32.98 -11.96 32.98 -16 35 C-16.26221814 30.79285562 -16.42147604 26.58781109 -16.5625 22.375 C-16.63791016 21.18519531 -16.71332031 19.99539062 -16.79101562 18.76953125 C-17.0090456 10.09678318 -17.0090456 10.09678318 -14.05981445 6.89111328 C-11.76339233 5.35799518 -9.50648494 4.14951264 -7 3 C-6.030625 2.38125 -5.06125 1.7625 -4.0625 1.125 C-2 0 -2 0 0 0 Z " fill="#CB5C3C" transform="translate(36,6)"/>
<path d="M0 0 C1.98 0 3.96 0 6 0 C5.67 2.97 5.34 5.94 5 9 C7.11922127 7.91256712 7.11922127 7.91256712 9 6 C9.33397787 2.87413125 9.33397787 2.87413125 9 0 C10.98 0 12.96 0 15 0 C14.34 2.97 13.68 5.94 13 9 C14.65 8.34 16.3 7.68 18 7 C17.67 4.69 17.34 2.38 17 0 C17.62648437 0.0721875 18.25296875 0.144375 18.8984375 0.21875 C20.12433594 0.35796875 20.12433594 0.35796875 21.375 0.5 C22.59316406 0.63921875 22.59316406 0.63921875 23.8359375 0.78125 C26.30712751 1.03104538 28.00136001 0.99968615 30.4375 0.4375 C33 0 33 0 36 1 C37.125 6.625 37.125 6.625 36 10 C24.12 10 12.24 10 0 10 C0.66 9.67 1.32 9.34 2 9 C1.34 6.03 0.68 3.06 0 0 Z M30 3 C30 4.65 30 6.3 30 8 C30.99 8.33 31.98 8.66 33 9 C32.67 7.68 32.34 6.36 32 5 C32.99 4.67 33.98 4.34 35 4 C33.35 3.67 31.7 3.34 30 3 Z M24 4 C24.33 5.32 24.66 6.64 25 8 C25.33 6.68 25.66 5.36 26 4 C25.34 4 24.68 4 24 4 Z " fill="#B02A2D" transform="translate(127,41)"/>
<path d="M0 0 C2.25 -0.3125 2.25 -0.3125 5 0 C7.1875 2.4375 7.1875 2.4375 9 5 C9.66 5.33 10.32 5.66 11 6 C11.309375 5.195625 11.61875 4.39125 11.9375 3.5625 C13 1 13 1 14 0 C15.99958364 -0.04080783 18.00045254 -0.04254356 20 0 C19.39894434 3.11456113 18.39742777 4.98480505 16.5 7.5 C13.12207834 12.63989232 13.11010827 17.9940944 13 24 C11.02 24 9.04 24 7 24 C6.99742188 23.23816406 6.99484375 22.47632812 6.9921875 21.69140625 C6.72937494 14.67431088 5.65826103 10.37526158 1.27734375 4.83984375 C0 3 0 3 0 0 Z " fill="#B02B2E" transform="translate(58,10)"/>
<path d="M0 0 C5.28 0 10.56 0 16 0 C16 1.98 16 3.96 16 6 C14.68 6.33 13.36 6.66 12 7 C11.67 12.61 11.34 18.22 11 24 C9.02 24 7.04 24 5 24 C4.67 18.39 4.34 12.78 4 7 C2.68 6.67 1.36 6.34 0 6 C0 4.02 0 2.04 0 0 Z " fill="#B12B2E" transform="translate(129,10)"/>
<path d="M0 0 C5.28 0 10.56 0 16 0 C16 1.98 16 3.96 16 6 C14.68 6.33 13.36 6.66 12 7 C11.67 12.61 11.34 18.22 11 24 C9.02 24 7.04 24 5 24 C4.67 18.39 4.34 12.78 4 7 C2.68 6.67 1.36 6.34 0 6 C0 4.02 0 2.04 0 0 Z " fill="#B22C2F" transform="translate(84,10)"/>
<path d="M0 0 C1.65 0 3.3 0 5 0 C5 5.94 5 11.88 5 18 C7.64 18 10.28 18 13 18 C13 19.98 13 21.96 13 24 C8.71 24 4.42 24 0 24 C0 16.08 0 8.16 0 0 Z " fill="#B22C2F" transform="translate(47,10)"/>
<path d="M0 0 C1.299375 -0.3403125 1.299375 -0.3403125 2.625 -0.6875 C5 -1 5 -1 7.375 0.625 C9 3 9 3 8.8125 5.6875 C8 8 8 8 7 9 C4.34177343 9.12658222 1.72112576 9.18520214 -0.9375 9.1875 C-1.67935547 9.19974609 -2.42121094 9.21199219 -3.18554688 9.22460938 C-5.12513629 9.22988478 -7.0642371 9.12188902 -9 9 C-9.66 8.34 -10.32 7.68 -11 7 C-10.875 4 -10.875 4 -10 1 C-6.73413596 -1.78203233 -3.97345573 -0.7298184 0 0 Z M-7 2 C-7 3.65 -7 5.3 -7 7 C-5.68 7 -4.36 7 -3 7 C-3 5.68 -3 4.36 -3 3 C-4.32 2.67 -5.64 2.34 -7 2 Z M2 2 C2 3.65 2 5.3 2 7 C2.99 7 3.98 7 5 7 C5 5.35 5 3.7 5 2 C4.01 2 3.02 2 2 2 Z " fill="#AE2A2D" transform="translate(119,42)"/>
<path d="M0 0 C2.64 0.33 5.28 0.66 8 1 C8.33 1.99 8.66 2.98 9 4 C8.34 4 7.68 4 7 4 C7.33 4.99 7.66 5.98 8 7 C8.66 7 9.32 7 10 7 C9.67 7.99 9.34 8.98 9 10 C6.03 10 3.06 10 0 10 C0 6.7 0 3.4 0 0 Z M4 7 C4 7.66 4 8.32 4 9 C4.99 8.67 5.98 8.34 7 8 C6.01 7.67 5.02 7.34 4 7 Z " fill="#B12B2E" transform="translate(164,41)"/>
</svg>
